<?xml version="1.0" encoding="UTF-8" standalone="no"?>
<svg
   xmlns:dc="http://purl.org/dc/elements/1.1/"
   xmlns:cc="http://creativecommons.org/ns#"
   xmlns:rdf="http://www.w3.org/1999/02/22-rdf-syntax-ns#"
   xmlns:svg="http://www.w3.org/2000/svg"
   xmlns="http://www.w3.org/2000/svg"
   xmlns:sodipodi="http://sodipodi.sourceforge.net/DTD/sodipodi-0.dtd"
   xmlns:inkscape="http://www.inkscape.org/namespaces/inkscape"
   width="16"
   height="16"
   fill="currentColor"
   class="bi bi-hash"
   viewBox="0 0 16 16"
   version="1.1"
   id="svg53"
   sodipodi:docname="hash.svg"
   inkscape:version="0.92.5 (0.92.5+69)">
  <metadata
     id="metadata59">
    <rdf:RDF>
      <cc:Work
         rdf:about="">
        <dc:format>image/svg+xml</dc:format>
        <dc:type
           rdf:resource="http://purl.org/dc/dcmitype/StillImage" />
      </cc:Work>
    </rdf:RDF>
  </metadata>
  <defs
     id="defs57" />
  <sodipodi:namedview
     pagecolor="#ffffff"
     bordercolor="#666666"
     borderopacity="1"
     objecttolerance="10"
     gridtolerance="10"
     guidetolerance="10"
     inkscape:pageopacity="0"
     inkscape:pageshadow="2"
     inkscape:window-width="1853"
     inkscape:window-height="1025"
     id="namedview55"
     showgrid="false"
     inkscape:zoom="52.75"
     inkscape:cx="8"
     inkscape:cy="8"
     inkscape:window-x="67"
     inkscape:window-y="27"
     inkscape:window-maximized="1"
     inkscape:current-layer="svg53" />
  <path
     d="M8.39 12.648a1.32 1.32 0 0 0-.015.18c0 .305.21.508.5.508.266 0 .492-.172.555-.477l.554-2.703h1.204c.421 0 .617-.234.617-.547 0-.312-.188-.53-.617-.53h-.985l.516-2.524h1.265c.43 0 .618-.227.618-.547 0-.313-.188-.524-.618-.524h-1.046l.476-2.304a1.06 1.06 0 0 0 .016-.164.51.51 0 0 0-.516-.516.54.54 0 0 0-.539.43l-.523 2.554H7.617l.477-2.304c.008-.04.015-.118.015-.164a.512.512 0 0 0-.523-.516.539.539 0 0 0-.531.43L6.53 5.484H5.414c-.43 0-.617.22-.617.532 0 .312.187.539.617.539h.906l-.515 2.523H4.609c-.421 0-.609.219-.609.531 0 .313.188.547.61.547h.976l-.516 2.492c-.008.04-.015.125-.015.18 0 .305.21.508.5.508.265 0 .492-.172.554-.477l.555-2.703h2.242l-.515 2.492zm-1-6.109h2.266l-.515 2.563H6.859l.532-2.563z"
     id="path51" />
  <path
     style="fill:#cccccc;stroke-width:0.01895735"
     d="M 5.3753169,13.296175 C 5.2607675,13.255297 5.1782471,13.179521 5.1210778,13.062717 5.0324859,12.881711 5.0393713,12.827962 5.3305055,11.42787 c 0.141966,-0.682729 0.2581201,-1.251717 0.2581201,-1.264418 0,-0.01755 -0.14454,-0.02447 -0.6018957,-0.02882 C 4.4221872,10.129265 4.37954,10.126445 4.2995261,10.089191 4.118019,10.004683 4.0298339,9.8635405 4.0185167,9.6394286 4.0064297,9.4000696 4.081481,9.2552417 4.2688201,9.156414 L 4.3658771,9.105213 5.07671,9.099593 C 5.4676678,9.0965027 5.7939931,9.0875234 5.801877,9.0796396 5.809761,9.0717556 5.9275454,8.5197822 6.0636203,7.8530317 6.1996952,7.1862813 6.3155221,6.6225274 6.3210135,6.6002453 6.3309955,6.559741 6.3308809,6.5597302 5.7939348,6.5507012 5.3691268,6.5435577 5.2367179,6.5352246 5.1604483,6.5108324 4.9400462,6.4403445 4.8281567,6.2935357 4.8144522,6.0568557 4.8103463,5.9859462 4.8176376,5.8898889 4.8306551,5.8433951 4.8626004,5.7292976 4.9768406,5.604157 5.0997597,5.5486133 5.1984308,5.5040265 5.2104594,5.503226 5.8681629,5.497472 l 0.6681628,-0.00585 0.00977,-0.041548 C 6.5514684,5.4272273 6.671229,4.8454976 6.8122301,4.157346 6.9532313,3.4691943 7.0789674,2.8772274 7.0916438,2.841864 7.1266627,2.7441722 7.2536961,2.6120758 7.3604152,2.5623809 c 0.071589,-0.033337 0.1289977,-0.044521 0.2292276,-0.04466 0.2176545,-3.014e-4 0.3780247,0.1007674 0.4659527,0.2936537 0.06719,0.1473948 0.052118,0.2583295 -0.2015671,1.4835598 -0.1303317,0.6294669 -0.2369668,1.1567974 -0.2369668,1.1718453 0,0.023589 0.1546391,0.026686 1.1218537,0.02247 l 1.1218536,-0.00489 0.2618121,-1.2796209 c 0.143997,-0.7037914 0.275914,-1.317187 0.293149,-1.3631013 0.04205,-0.1120239 0.14021,-0.2167217 0.258412,-0.2756243 0.07711,-0.038426 0.12501,-0.048392 0.231002,-0.048062 0.219124,6.822e-4 0.363939,0.086837 0.461341,0.2744652 0.08211,0.1581638 0.07292,0.2302296 -0.192952,1.513125 -0.131415,0.6341144 -0.238936,1.1608916 -0.238936,1.170616 0,0.010553 0.235301,0.017681 0.583695,0.017681 0.641074,0 0.743583,0.012687 0.885499,0.1095928 0.04797,0.032759 0.09498,0.089544 0.127963,0.1545873 0.04416,0.087082 0.05213,0.1263681 0.05213,0.256824 0,0.2552543 -0.09401,0.3962506 -0.325894,0.4887682 -0.09499,0.037898 -0.141421,0.04059 -0.825765,0.047865 -0.398815,0.00424 -0.725118,0.00997 -0.725118,0.012725 0,0.00276 -0.115166,0.5681863 -0.255924,1.2565054 -0.140758,0.6883189 -0.255924,1.2563475 -0.255924,1.2622855 0,0.00594 0.275118,0.013367 0.611374,0.016508 0.591621,0.00553 0.614429,0.00712 0.705925,0.049292 0.124346,0.057313 0.175921,0.1070439 0.230048,0.2218227 0.03336,0.070732 0.04475,0.1279052 0.04488,0.2252887 2.65e-4,0.1864034 -0.03069,0.270415 -0.141597,0.3843007 -0.150177,0.1542103 -0.174767,0.1581833 -0.979024,0.1581833 -0.372847,0 -0.6816944,0.0064 -0.6863266,0.01422 -0.00463,0.0078 -0.1338946,0.628436 -0.2872502,1.379147 -0.1942361,0.95083 -0.293605,1.398334 -0.3275344,1.475037 -0.1745181,0.394526 -0.7436057,0.431029 -0.9254459,0.05936 -0.085877,-0.175527 -0.078446,-0.233328 0.2086455,-1.622863 0.1414605,-0.684674 0.2572007,-1.258371 0.2572007,-1.274881 0,-0.02705 -0.1106015,-0.03002 -1.1173645,-0.03002 -0.6145505,0 -1.1216607,0.007 -1.1269113,0.01545 -0.00525,0.0085 -0.1337511,0.6198 -0.2855566,1.358452 -0.1518055,0.738653 -0.2842957,1.373777 -0.2944227,1.411385 -0.02587,0.09607 -0.1173451,0.233952 -0.1940103,0.292428 -0.133942,0.102163 -0.3542462,0.136579 -0.5125788,0.08007 z M 9.3972654,7.8682464 C 9.5355196,7.1827014 9.6531373,6.6025397 9.6586383,6.5789981 l 0.010002,-0.042803 -1.1442726,0.00489 -1.1442726,0.00489 L 7.120016,7.7971599 C 6.9769726,8.4853116 6.859674,9.0632736 6.8593525,9.0815201 c -5.497e-4,0.031235 0.066287,0.033175 1.1429788,0.033175 h 1.1435634 z"
     id="path61"
     inkscape:connector-curvature="0" />
</svg>
