<?xml version="1.0" encoding="UTF-8" standalone="no"?>
<svg
   xmlns:dc="http://purl.org/dc/elements/1.1/"
   xmlns:cc="http://creativecommons.org/ns#"
   xmlns:rdf="http://www.w3.org/1999/02/22-rdf-syntax-ns#"
   xmlns:svg="http://www.w3.org/2000/svg"
   xmlns="http://www.w3.org/2000/svg"
   xmlns:sodipodi="http://sodipodi.sourceforge.net/DTD/sodipodi-0.dtd"
   xmlns:inkscape="http://www.inkscape.org/namespaces/inkscape"
   width="16"
   height="16"
   fill="currentColor"
   class="bi bi-sticky-fill"
   viewBox="0 0 16 16"
   version="1.1"
   id="svg137"
   sodipodi:docname="sticky-fill-dark.svg"
   inkscape:version="0.92.5 (0.92.5+69)">
  <metadata
     id="metadata143">
    <rdf:RDF>
      <cc:Work
         rdf:about="">
        <dc:format>image/svg+xml</dc:format>
        <dc:type
           rdf:resource="http://purl.org/dc/dcmitype/StillImage" />
        <dc:title></dc:title>
      </cc:Work>
    </rdf:RDF>
  </metadata>
  <defs
     id="defs141" />
  <sodipodi:namedview
     pagecolor="#ffffff"
     bordercolor="#666666"
     borderopacity="1"
     objecttolerance="10"
     gridtolerance="10"
     guidetolerance="10"
     inkscape:pageopacity="0"
     inkscape:pageshadow="2"
     inkscape:window-width="1533"
     inkscape:window-height="845"
     id="namedview139"
     showgrid="false"
     inkscape:zoom="14.75"
     inkscape:cx="8"
     inkscape:cy="8"
     inkscape:window-x="67"
     inkscape:window-y="27"
     inkscape:window-maximized="1"
     inkscape:current-layer="svg137" />
  <path
     d="M2.5 1A1.5 1.5 0 0 0 1 2.5v11A1.5 1.5 0 0 0 2.5 15h6.086a1.5 1.5 0 0 0 1.06-.44l4.915-4.914A1.5 1.5 0 0 0 15 8.586V2.5A1.5 1.5 0 0 0 13.5 1h-11zm6 8.5a1 1 0 0 1 1-1h4.396a.25.25 0 0 1 .177.427l-5.146 5.146a.25.25 0 0 1-.427-.177V9.5z"
     id="path135" />
  <path
     style="fill:#cccccc;stroke-width:0.06779661"
     d="M 1.9957465,14.870182 C 1.6751141,14.75588 1.3779073,14.482086 1.1836215,14.122034 L 1.0372881,13.850847 V 7.9811241 2.1114007 L 1.2424702,1.7795265 C 1.3696479,1.5738215 1.5738215,1.3696479 1.7795265,1.2424702 L 2.1114007,1.0372881 h 5.8697234 5.8697229 l 0.277606,0.1485482 c 0.358862,0.1920292 0.679384,0.5601937 0.769165,0.883497 0.09799,0.3528443 0.09666,6.601342 -0.0015,6.9679548 -0.0617,0.2304814 -0.486502,0.6849729 -2.83013,3.0279099 -2.3372758,2.336586 -2.7988669,2.767911 -3.0287232,2.830131 -0.4331526,0.117249 -6.7049318,0.09485 -7.0415416,-0.02515 z M 11.528492,11.52914 c 1.815361,-1.8149142 2.62744,-2.6714756 2.62744,-2.7713603 0,-0.2958048 -0.06405,-0.3027641 -2.598306,-0.2823085 -2.3112531,0.018656 -2.4164945,0.025111 -2.5960274,0.1592264 -0.1029152,0.07688 -0.250021,0.2239858 -0.326901,0.326901 -0.1341159,0.1795329 -0.1405708,0.2847743 -0.1592264,2.5960274 -0.020448,2.533358 -0.013407,2.598306 0.281661,2.598306 0.099009,0 0.9638102,-0.819689 2.7713598,-2.626792 z"
     id="path3848"
     inkscape:connector-curvature="0" />
  <path
     style="fill:#333333;stroke-width:0.06779661"
     d="M 3.4713189,14.909742 C 2.317324,14.877433 1.9435233,14.845213 1.8442003,14.769492 1.5203747,14.522618 1.3199907,14.306052 1.2005707,14.073887 1.0761964,13.832091 1.0711864,13.595618 1.0711864,7.9668664 V 2.1113823 L 1.2784195,1.7985174 C 1.3923977,1.6264418 1.6264418,1.3923977 1.7985174,1.2784195 L 2.1113823,1.0711864 h 5.8554841 c 5.6624516,0 5.8639886,0.00434 6.1134396,0.1315991 0.289081,0.1474781 0.658434,0.5372606 0.765778,0.8081359 0.04588,0.1157622 0.07159,1.3640299 0.07284,3.5366185 0.0018,3.0739916 -0.0081,3.3776093 -0.117465,3.5932201 -0.146399,0.2887458 -5.3448963,5.500968 -5.6285796,5.643439 -0.2473648,0.124232 -3.3266395,0.192034 -5.7015625,0.125543 z M 9.5457627,13.516591 C 10.814565,12.317197 11.678609,11.458179 12.891984,10.189831 14.236262,8.7846488 14.365606,8.5742088 13.934595,8.493522 13.813957,8.470938 12.677966,8.462013 11.410169,8.473688 8.2345308,8.502932 8.5027837,8.2346433 8.474078,11.410169 c -0.011461,1.267797 -0.00254,2.403788 0.019834,2.524426 0.069988,0.37745 0.3121803,0.281203 1.0518507,-0.418004 z"
     id="path53"
     inkscape:connector-curvature="0" />
</svg>
