<?xml version="1.0" encoding="UTF-8" standalone="no"?>
<svg
   xmlns:dc="http://purl.org/dc/elements/1.1/"
   xmlns:cc="http://creativecommons.org/ns#"
   xmlns:rdf="http://www.w3.org/1999/02/22-rdf-syntax-ns#"
   xmlns:svg="http://www.w3.org/2000/svg"
   xmlns="http://www.w3.org/2000/svg"
   xmlns:sodipodi="http://sodipodi.sourceforge.net/DTD/sodipodi-0.dtd"
   xmlns:inkscape="http://www.inkscape.org/namespaces/inkscape"
   width="16"
   height="16"
   fill="currentColor"
   class="bi bi-trash-fill"
   viewBox="0 0 16 16"
   version="1.1"
   id="svg3893"
   sodipodi:docname="trash-fill-dark.svg"
   inkscape:version="0.92.5 (0.92.5+69)">
  <metadata
     id="metadata3899">
    <rdf:RDF>
      <cc:Work
         rdf:about="">
        <dc:format>image/svg+xml</dc:format>
        <dc:type
           rdf:resource="http://purl.org/dc/dcmitype/StillImage" />
        <dc:title></dc:title>
      </cc:Work>
    </rdf:RDF>
  </metadata>
  <defs
     id="defs3897" />
  <sodipodi:namedview
     pagecolor="#ffffff"
     bordercolor="#666666"
     borderopacity="1"
     objecttolerance="10"
     gridtolerance="10"
     guidetolerance="10"
     inkscape:pageopacity="0"
     inkscape:pageshadow="2"
     inkscape:window-width="1533"
     inkscape:window-height="845"
     id="namedview3895"
     showgrid="false"
     inkscape:zoom="14.75"
     inkscape:cx="-4.4745763"
     inkscape:cy="8"
     inkscape:window-x="67"
     inkscape:window-y="27"
     inkscape:window-maximized="1"
     inkscape:current-layer="svg3893" />
  <path
     d="M2.5 1a1 1 0 0 0-1 1v1a1 1 0 0 0 1 1H3v9a2 2 0 0 0 2 2h6a2 2 0 0 0 2-2V4h.5a1 1 0 0 0 1-1V2a1 1 0 0 0-1-1H10a1 1 0 0 0-1-1H7a1 1 0 0 0-1 1H2.5zm3 4a.5.5 0 0 1 .5.5v7a.5.5 0 0 1-1 0v-7a.5.5 0 0 1 .5-.5zM8 5a.5.5 0 0 1 .5.5v7a.5.5 0 0 1-1 0v-7A.5.5 0 0 1 8 5zm3 .5v7a.5.5 0 0 1-1 0v-7a.5.5 0 0 1 1 0z"
     id="path3891" />
  <path
     style="fill:#cccccc;stroke-width:0.06779661"
     d="M 4.3657191,14.858875 C 4.1272249,14.784993 3.9244102,14.647009 3.6488306,14.371143 3.0045951,13.726237 3.0372881,14.031469 3.0372881,8.6616115 V 4.0050048 L 2.6016599,3.9700367 C 2.3040268,3.9461456 2.0996798,3.8878219 1.9565692,3.7859182 1.613233,3.5414412 1.5457504,3.332654 1.5458681,2.5152312 1.5459974,1.6165644 1.6395977,1.3808138 2.0855519,1.1559322 2.3767325,1.0090983 2.4558155,1.0033898 4.1988091,1.0033898 H 6.0095654 L 6.053538,0.80318373 C 6.077723,0.69307037 6.159112,0.52466422 6.2344025,0.42894783 6.5037559,0.08652042 6.6581038,0.05423729 8.0259191,0.05423729 c 1.1515229,0 1.2866334,0.0124116 1.4876741,0.13666187 0.2153817,0.1331132 0.4389492,0.48975216 0.4389492,0.70022023 0,0.0912303 0.2451566,0.10717403 1.9273846,0.12534721 1.823428,0.019699 1.937474,0.028361 2.114455,0.1606038 0.421283,0.3147904 0.466635,0.4428698 0.466635,1.3178449 0,0.7059087 -0.01699,0.8263797 -0.139782,0.9908393 -0.258137,0.3457466 -0.476627,0.4586004 -0.945694,0.4884683 l -0.439948,0.028014 v 4.6791518 c 0,3.2813803 -0.02288,4.7555113 -0.07659,4.9347723 -0.128869,0.430128 -0.527726,0.887928 -0.971299,1.114838 l -0.399948,0.204594 -3.3947274,0.01316 c -2.8724548,0.01113 -3.4458952,-0.0027 -3.7273135,-0.08987 z M 5.8634271,12.855979 6.020339,12.708567 V 8.9915722 c 0,-3.6266005 -0.0033,-3.7202935 -0.1355932,-3.8525891 C 5.6973576,4.9515948 5.2712209,4.9554233 5.0986433,5.1460454 4.975725,5.2818157 4.9685116,5.457697 4.9491882,8.7901132 c -0.011167,1.9257768 -0.00184,3.6022668 0.020731,3.7255328 0.084945,0.463955 0.5666245,0.647424 0.8935079,0.340333 z m 2.5248726,-0.03122 C 8.5265173,12.64904 8.5288136,12.586239 8.5288136,8.9816671 V 5.3172137 L 8.3814027,5.1603018 C 8.1863818,4.9527118 7.7887327,4.9454186 7.6071178,5.1461009 7.4834096,5.2827969 7.4779661,5.4459261 7.4779661,9.0164976 v 3.7276864 l 0.1600532,0.129602 c 0.2368478,0.191788 0.5784099,0.169467 0.7502804,-0.04903 z m 2.5084743,0 c 0.138195,-0.175685 0.140514,-0.23877 0.140514,-3.8213652 0,-3.5825955 -0.0023,-3.64568 -0.140514,-3.8213655 -0.198501,-0.2523542 -0.605216,-0.2523542 -0.803718,0 -0.1381943,0.1756855 -0.1405136,0.23877 -0.1405136,3.8213655 0,3.5825952 0.00232,3.6456802 0.1405136,3.8213652 0.108384,0.137787 0.200274,0.178635 0.401859,0.178635 0.201585,0 0.293476,-0.04085 0.401859,-0.178635 z"
     id="path3901"
     inkscape:connector-curvature="0" />
  <path
     style="fill:#333333;stroke-width:0.06779661"
     d="M 4.44502,14.834189 C 3.8710014,14.66135 3.2922671,14.070331 3.1764874,13.53873 3.1223492,13.290156 3.0838946,11.70594 3.0565243,8.5966102 L 3.0162412,4.020339 2.7047308,4.033376 C 2.4463558,4.044189 2.4279132,4.037816 2.5966102,3.99601 2.7872769,3.94876 2.7793706,3.94311 2.4702213,3.905682 1.7830076,3.822484 1.5885685,3.5097327 1.5920104,2.4930986 1.5948829,1.6446555 1.6853292,1.4122761 2.0937929,1.2038936 2.3424982,1.0770136 2.5379143,1.0597099 4.2068411,1.0167877 L 6.0458397,0.96949153 6.0990923,0.76355512 C 6.1283812,0.65029009 6.2450104,0.46883956 6.3582681,0.36033172 6.5523066,0.17443111 6.6081684,0.16023458 7.3261635,0.11435424 c 0.926244,-0.05918759 1.9186758,-0.005492 2.1618087,0.11696462 0.098723,0.0497233 0.2464163,0.22864229 0.3282061,0.39759774 0.090345,0.18662821 0.2067527,0.3217596 0.2966007,0.34431018 0.08134,0.0204151 0.962814,0.0584348 1.958831,0.0844882 l 1.810939,0.04737 0.255336,0.2553673 0.255335,0.2553672 v 0.8747641 c 0,0.8395118 -0.0068,0.882074 -0.169491,1.0561591 -0.231794,0.2480733 -0.487186,0.3703929 -0.793244,0.379923 l -0.257604,0.00802 0.20339,0.055863 c 0.177197,0.048669 0.163313,0.054184 -0.107809,0.042826 l -0.311198,-0.013037 -0.04667,4.7356305 c -0.0504,5.1137718 -0.0373,4.9438148 -0.419534,5.4449448 -0.09304,0.121975 -0.353047,0.329549 -0.577806,0.461277 L 11.5046,14.901695 8.0675542,14.895868 C 6.1771791,14.892662 4.5470386,14.864907 4.44502,14.834189 Z m 1.4710647,-1.964268 c 0.091502,-0.07594 0.1042543,-0.543914 0.1042543,-3.8258491 0,-4.2484621 0.025023,-4.0504168 -0.5092224,-4.0302091 -0.3715269,0.014053 -0.4468845,0.060207 -0.4961062,0.3038518 -0.021573,0.1067824 -0.048803,1.7927532 -0.060513,3.746602 -0.018756,3.1295604 -0.00869,3.5716864 0.084576,3.7140244 0.058227,0.08887 0.1350347,0.143546 0.1706847,0.121513 0.03565,-0.02203 0.064818,-0.0062 0.064818,0.03513 0,0.100025 0.5042072,0.04889 0.6415084,-0.06506 z m 2.4810787,-0.05643 c 0.126701,-0.161078 0.1316502,-0.30715 0.1316502,-3.8854781 V 5.2099055 L 8.365158,5.1026742 C 8.2104685,5.0013177 7.7034176,4.9926275 7.6063755,5.0896697 7.4783983,5.2176468 7.4471336,6.0203831 7.4456852,9.2154597 l -0.00162,3.5680023 0.1525424,0.105724 c 0.2358912,0.163494 0.6426596,0.12503 0.8005532,-0.0757 z m 2.4777836,0.07137 c 0.05268,-0.05269 0.07846,-0.123839 0.05727,-0.158121 -0.02119,-0.03428 -0.0062,-0.06233 0.03328,-0.06233 0.04965,0 0.0718,-1.128403 0.0718,-3.6572368 V 5.349934 L 10.878526,5.1653625 c -0.217843,-0.2532572 -0.549379,-0.2532572 -0.767222,0 L 9.9525424,5.349934 v 3.6277955 c 0,3.6224915 0.01199,3.8291695 0.2304886,3.9731055 0.12319,0.08115 0.589227,0.03671 0.691916,-0.06598 z"
     id="path117"
     inkscape:connector-curvature="0" />
</svg>
